<svg width="17" height="20" viewBox="0 0 17 20" xmlns="http://www.w3.org/2000/svg"><path fill="#5F5F5F" d="M8.5 1.25C10.5112 1.25 12.1429 2.92969 12.1429 5V7.5H4.85714V5C4.85714 2.92969 6.48884 1.25 8.5 1.25ZM3.64286 5V7.5H3.03571C1.35848 7.5 0 8.89844 0 10.625V16.875C0 18.6016 1.35848 20 3.03571 20H13.9643C15.6415 20 17 18.6016 17 16.875V10.625C17 8.89844 15.6415 7.5 13.9643 7.5H13.3571V5C13.3571 2.23828 11.1828 0 8.5 0C5.81719 0 3.64286 2.23828 3.64286 5ZM3.03571 8.75H13.9643C14.9699 8.75 15.7857 9.58984 15.7857 10.625V16.875C15.7857 17.9102 14.9699 18.75 13.9643 18.75H3.03571C2.03013 18.75 1.21429 17.9102 1.21429 16.875V10.625C1.21429 9.58984 2.03013 8.75 3.03571 8.75ZM9.10714 12.1875C9.10714 11.8438 8.83393 11.5625 8.5 11.5625C8.16607 11.5625 7.89286 11.8438 7.89286 12.1875V15.3125C7.89286 15.6562 8.16607 15.9375 8.5 15.9375C8.83393 15.9375 9.10714 15.6562 9.10714 15.3125V12.1875Z"/></svg>